<?xml version="1.0" encoding="UTF-8"?>
<svg id="Camada_1" xmlns="http://www.w3.org/2000/svg" baseProfile="tiny" version="1.2" viewBox="0 0 512 512">
  <!-- Generator: Adobe Illustrator 29.8.3, SVG Export Plug-In . SVG Version: 2.1.1 Build 3)  -->
  <path id="Alpha" d="M342.87,246.78c-4.7-8.61-22.59-43.43-22.59-43.43,19.99-41.44,46.46-97.83,46.46-97.83l-35.61-.78s-5.48,10.56-26.61,61.83c-21.52-43.83-30.91-64.69-70.43-64.57-41.14.12-77.48,43.04-78.66,101.35-1.17,58.3,39.92,86.08,78.66,85.69,38.74-.39,55.95-27.39,65.74-44.61,1.06-1.86,2.66-4.93,4.69-8.94,14.48,30.17,14.48,32.42,26.61,42.99,12.13,10.56,38.74,9,38.74,9v-26.61c-14.09-1.17-22.3-5.48-27-14.09ZM234.09,258.13c-7.05-.26-42.26-5.22-43.57-54.78-1.3-49.57,28.18-68.61,43.57-68.87,15.39-.26,22.17,7.04,27.13,15.13,4.95,8.09,25.3,53.74,25.3,53.74-24,55.82-45.39,55.04-52.43,54.78Z" fill="#111317"/>
  <g id="_x27__x27_Alpha_x27__-_text">
    <path d="M218.17,340.04v5.73c0,.29-.23.52-.52.52h-29.94c-5.37,0-9.72-4.35-9.72-9.72v-29.41c0-.29.23-.52.52-.52h6.52c.29,0,.52.23.52.52v27.52c0,2.66,2.16,4.82,4.82,4.82h27.26c.29,0,.52.23.52.52Z" fill="#111317"/>
    <path d="M283.64,318.65v2.03c0,6.23-5.05,11.28-11.28,11.28h-18.19c-.29,0-.52-.23-.52-.52v-5.48c0-.29.23-.52.52-.52h15.99c3.28,0,5.93-2.66,5.93-5.93h0c0-3.06-2.48-5.54-5.54-5.54h-21.6c-1.01,0-1.82.82-1.82,1.82v29.99c0,.29-.23.52-.52.52h-6.51c-.29,0-.52-.23-.52-.52v-32.02c0-3.93,3.18-7.11,7.11-7.11h24.97c6.63,0,12,5.37,12,12Z" fill="#111317"/>
    <path d="M348.08,307.17v38.6c0,.29-.23.52-.52.52h-6.52c-.29,0-.52-.23-.52-.52v-13.29c0-.29-.23-.52-.52-.52h-27.64c-.29,0-.52.23-.52.52v13.29c0,.29-.23.52-.52.52h-6.52c-.29,0-.52-.23-.52-.52v-38.6c0-.29.23-.52.52-.52h6.52c.29,0,.52.23.52.52v17.73c0,.29.23.52.52.52h27.64c.29,0,.52-.23.52-.52v-17.73c0-.29.23-.52.52-.52h6.52c.29,0,.52.23.52.52Z" fill="#111317"/>
    <g>
      <path d="M419.29,346.3h-7.29c-.19,0-.37-.11-.46-.27l-16.54-30.48c-.2-.37-.72-.37-.92,0l-16.54,30.48c-.09.17-.27.27-.46.27h-7.29c-.4,0-.65-.42-.46-.77l20.97-38.64.13-.24h8.22l.13.24,20.97,38.64c.19.35-.06.77-.46.77Z" fill="#111317"/>
      <path d="M398.53,331.69h-7.97c-.4,0-.65-.44-.45-.79l3.01-5.21c.09-.16.27-.26.45-.26h1.96c.19,0,.36.1.45.26l3.01,5.21c.2.35-.05.79-.45.79Z" fill="#111317"/>
    </g>
    <g>
      <path d="M155.49,346.3h-7.29c-.19,0-.37-.11-.46-.27l-16.54-30.48c-.2-.37-.72-.37-.92,0l-16.54,30.48c-.09.17-.27.27-.46.27h-7.29c-.4,0-.65-.42-.46-.77l20.97-38.64.13-.24h8.22l.13.24,20.97,38.64c.19.35-.06.77-.46.77Z" fill="#111317"/>
      <path d="M134.72,331.69h-7.97c-.4,0-.65-.44-.45-.79l3.01-5.21c.09-.16.27-.26.45-.26h1.96c.19,0,.36.1.45.26l3.01,5.21c.2.35-.05.79-.45.79Z" fill="#111317"/>
    </g>
  </g>
  <g id="_x22_Connect_x22__Text">
    <path d="M168.73,372.33c-1.03,0-1.97-.19-2.84-.56s-1.62-.88-2.26-1.53-1.14-1.41-1.5-2.29-.54-1.82-.54-2.82v-.04c0-1,.18-1.94.53-2.81.36-.87.86-1.64,1.5-2.3.64-.66,1.41-1.18,2.29-1.56s1.85-.57,2.92-.57c.64,0,1.22.05,1.75.16.53.11,1.01.26,1.45.45s.85.42,1.22.69c.37.27.73.56,1.06.88l-1.58,1.82c-.56-.52-1.15-.94-1.78-1.26-.63-.32-1.34-.48-2.14-.48-.67,0-1.28.13-1.85.39s-1.06.61-1.47,1.06c-.41.45-.73.97-.96,1.57-.23.6-.34,1.24-.34,1.92v.04c0,.68.11,1.32.34,1.93.23.61.55,1.14.96,1.59.41.45.9.81,1.47,1.07s1.18.39,1.85.39c.85,0,1.59-.16,2.2-.49.61-.33,1.22-.77,1.82-1.33l1.58,1.6c-.36.39-.74.73-1.13,1.03-.39.3-.82.56-1.27.78-.45.22-.95.39-1.49.5s-1.14.17-1.79.17Z" fill="#111317"/>
    <path d="M200.25,372.33c-1.08,0-2.07-.19-2.96-.57-.89-.38-1.66-.9-2.3-1.55-.64-.65-1.14-1.42-1.5-2.29-.36-.87-.54-1.8-.54-2.79v-.04c0-.99.18-1.92.54-2.79.36-.87.87-1.64,1.52-2.3.65-.66,1.43-1.18,2.32-1.57.89-.39,1.88-.58,2.96-.58s2.07.19,2.96.57c.89.38,1.66.9,2.3,1.55.64.65,1.14,1.42,1.5,2.29.36.87.54,1.8.54,2.79v.04c0,.99-.18,1.92-.54,2.79-.36.87-.87,1.64-1.52,2.3s-1.43,1.18-2.32,1.57c-.89.39-1.88.58-2.96.58ZM200.29,370.07c.69,0,1.32-.13,1.9-.39s1.07-.61,1.48-1.06c.41-.45.73-.97.97-1.57s.35-1.24.35-1.92v-.04c0-.68-.12-1.32-.35-1.93s-.56-1.13-.98-1.58c-.42-.45-.92-.8-1.5-1.07-.58-.27-1.22-.4-1.91-.4s-1.32.13-1.9.39-1.07.61-1.48,1.06c-.41.45-.73.97-.97,1.57s-.35,1.24-.35,1.92v.04c0,.68.12,1.32.35,1.93.23.61.56,1.13.98,1.58.42.45.92.8,1.5,1.07.58.27,1.22.4,1.91.4Z" fill="#111317"/>
    <path d="M227.17,358.09h2.28l7.48,9.68v-9.68h2.44v14h-2.06l-7.7-9.96v9.96h-2.44v-14Z" fill="#111317"/>
    <path d="M259.57,358.09h2.28l7.48,9.68v-9.68h2.44v14h-2.06l-7.7-9.96v9.96h-2.44v-14Z" fill="#111317"/>
    <path d="M291.97,358.09h10.36v2.22h-7.92v3.6h7.02v2.22h-7.02v3.74h8.02v2.22h-10.46v-14Z" fill="#111317"/>
    <path d="M328.49,372.33c-1.03,0-1.97-.19-2.84-.56-.87-.37-1.62-.88-2.26-1.53-.64-.65-1.14-1.41-1.5-2.29-.36-.88-.54-1.82-.54-2.82v-.04c0-1,.18-1.94.53-2.81.36-.87.86-1.64,1.5-2.3.64-.66,1.41-1.18,2.29-1.56s1.85-.57,2.92-.57c.64,0,1.22.05,1.75.16.53.11,1.01.26,1.45.45.44.19.85.42,1.22.69.37.27.73.56,1.06.88l-1.58,1.82c-.56-.52-1.15-.94-1.78-1.26s-1.34-.48-2.14-.48c-.67,0-1.28.13-1.85.39s-1.06.61-1.47,1.06c-.41.45-.73.97-.96,1.57s-.34,1.24-.34,1.92v.04c0,.68.11,1.32.34,1.93.23.61.55,1.14.96,1.59.41.45.9.81,1.47,1.07s1.18.39,1.85.39c.85,0,1.59-.16,2.2-.49.61-.33,1.22-.77,1.82-1.33l1.58,1.6c-.36.39-.74.73-1.13,1.03-.39.3-.82.56-1.27.78-.45.22-.95.39-1.49.5s-1.14.17-1.79.17Z" fill="#111317"/>
    <path d="M356.77,360.37h-4.44v-2.28h11.36v2.28h-4.44v11.72h-2.48v-11.72Z" fill="#111317"/>
  </g>
  <g id="phrase">
    <path d="M100.16,387.24h.98v5.6h-.98v-5.6Z" fill="#111317"/>
    <path d="M103.68,387.24h.91l2.99,3.87v-3.87h.98v5.6h-.82l-3.08-3.98v3.98h-.98v-5.6Z" fill="#111317"/>
    <path d="M112.41,388.16h-1.78v-.91h4.54v.91h-1.78v4.69h-.99v-4.69Z" fill="#111317"/>
    <path d="M117.26,387.24h4.14v.89h-3.17v1.44h2.81v.89h-2.81v1.5h3.21v.89h-4.18v-5.6Z" fill="#111317"/>
    <path d="M126.32,392.94c-.44,0-.83-.07-1.19-.22-.36-.15-.66-.35-.92-.61-.25-.26-.45-.56-.59-.91-.14-.35-.21-.73-.21-1.14v-.02c0-.39.07-.76.21-1.11.14-.35.34-.66.6-.92.26-.26.56-.47.92-.63.35-.15.74-.23,1.16-.23.25,0,.47.02.67.05.2.03.39.08.56.15.17.06.33.14.48.24.15.09.3.2.44.32l-.62.74c-.11-.09-.22-.17-.33-.25-.11-.07-.23-.14-.35-.19-.12-.05-.26-.09-.4-.12-.15-.03-.31-.04-.48-.04-.26,0-.5.05-.72.16-.22.11-.41.25-.58.43-.16.18-.29.39-.38.63-.09.24-.14.49-.14.76v.02c0,.29.04.56.14.8.09.25.22.46.39.63.17.18.37.32.6.42s.49.15.78.15c.27,0,.51-.04.75-.12.23-.08.43-.18.6-.31v-1.05h-1.43v-.86h2.38v2.35c-.14.12-.29.23-.46.34-.17.11-.35.2-.54.28s-.4.14-.63.19c-.22.04-.46.07-.7.07Z" fill="#111317"/>
    <path d="M130.97,387.24h2.5c.35,0,.66.05.94.15s.5.24.68.41c.15.16.26.33.34.54.08.2.12.43.12.67v.02c0,.23-.03.44-.1.62-.07.18-.16.35-.28.49s-.26.26-.42.36-.34.17-.54.23l1.51,2.12h-1.16l-1.38-1.95h-1.24v1.95h-.98v-5.6ZM133.39,390.02c.35,0,.63-.08.84-.25s.31-.4.31-.69v-.02c0-.3-.1-.54-.3-.69-.2-.16-.49-.24-.86-.24h-1.44v1.89h1.44Z" fill="#111317"/>
    <path d="M139.78,387.2h.91l2.46,5.64h-1.04l-.57-1.35h-2.65l-.58,1.35h-1.01l2.46-5.64ZM141.19,390.62l-.97-2.24-.96,2.24h1.93Z" fill="#111317"/>
    <path d="M146.57,393.81l.63-.93c-.34-.06-.64-.18-.92-.35s-.52-.38-.73-.62c-.2-.25-.36-.53-.48-.85s-.17-.65-.17-1v-.02c0-.4.07-.77.21-1.12s.34-.66.6-.92c.26-.26.56-.47.91-.62.35-.15.74-.23,1.17-.23.26,0,.49.02.7.06.21.04.4.1.58.18.18.08.34.17.49.28.15.11.29.22.42.35l-.63.73c-.22-.21-.46-.38-.71-.5-.25-.13-.54-.19-.86-.19-.27,0-.51.05-.74.16-.23.1-.42.25-.59.42-.17.18-.29.39-.38.63-.09.24-.14.5-.14.77v.02c0,.27.04.53.14.77s.22.46.38.64c.17.18.36.32.59.43.23.1.47.16.74.16.34,0,.63-.07.88-.2.25-.13.49-.31.73-.53l.63.64c-.14.14-.28.27-.42.38-.14.11-.3.21-.47.3-.17.08-.35.15-.55.2-.2.05-.42.08-.66.09l-.53,1.23-.84-.35Z" fill="#111317"/>
    <path d="M154.09,387.2h.91l2.46,5.64h-1.04l-.57-1.35h-2.65l-.58,1.35h-1.01l2.46-5.64ZM153.03,386.7c.09-.33.2-.57.33-.74s.32-.26.56-.26c.11,0,.22.02.33.05.11.03.21.07.31.11.1.04.19.08.28.11.08.03.17.05.24.05.12,0,.21-.03.26-.1.06-.06.12-.17.18-.3l.54.17c-.09.32-.2.57-.33.74-.13.17-.32.26-.56.26-.11,0-.22-.02-.33-.05-.11-.03-.21-.07-.31-.11-.1-.04-.19-.08-.28-.11-.09-.03-.17-.05-.24-.05-.12,0-.21.03-.26.1-.06.06-.12.17-.18.3l-.54-.16ZM155.49,390.62l-.97-2.24-.96,2.24h1.93Z" fill="#111317"/>
    <path d="M162.13,392.94c-.43,0-.83-.08-1.18-.23-.36-.15-.66-.36-.92-.62s-.46-.57-.6-.92-.22-.72-.22-1.12v-.02c0-.39.07-.77.22-1.12s.35-.66.61-.92.57-.47.93-.63c.36-.15.75-.23,1.18-.23s.83.08,1.18.23c.36.15.66.36.92.62.26.26.46.57.6.92.14.35.22.72.22,1.12v.02c0,.39-.07.77-.22,1.12-.14.35-.35.66-.61.92-.26.26-.57.47-.93.63-.36.15-.75.23-1.18.23ZM162.15,392.04c.28,0,.53-.05.76-.16.23-.1.43-.25.59-.42s.29-.39.39-.63c.09-.24.14-.5.14-.77v-.02c0-.27-.05-.53-.14-.77-.09-.24-.22-.45-.39-.63-.17-.18-.37-.32-.6-.43-.23-.11-.49-.16-.76-.16s-.53.05-.76.16c-.23.1-.43.25-.59.42s-.29.39-.39.63-.14.5-.14.77v.02c0,.27.05.53.14.77.09.24.22.45.39.63.17.18.37.32.6.43.23.11.49.16.77.16Z" fill="#111317"/>
    <path d="M175.12,392.41c-.24.17-.5.3-.78.39s-.59.14-.92.14c-.43,0-.83-.08-1.18-.23-.36-.15-.66-.36-.92-.62s-.46-.57-.6-.92-.22-.72-.22-1.12v-.02c0-.39.07-.77.22-1.12s.35-.66.61-.92.57-.47.93-.63c.36-.15.75-.23,1.18-.23s.83.08,1.18.23c.36.15.66.36.92.62.26.26.46.57.6.92.14.35.22.72.22,1.12v.02c0,.32-.05.62-.14.92-.1.29-.24.56-.42.8l.64.54-.63.7-.67-.6ZM173.43,392.04c.19,0,.36-.02.52-.07s.31-.11.44-.2l-.96-.82.63-.72.96.88c.19-.29.29-.64.29-1.05v-.02c0-.27-.05-.53-.14-.77-.09-.24-.22-.45-.39-.63-.17-.18-.37-.32-.6-.43-.23-.11-.49-.16-.76-.16s-.53.05-.76.16c-.23.1-.43.25-.59.42s-.29.39-.39.63-.14.5-.14.77v.02c0,.27.05.53.14.77.09.24.22.45.39.63.17.18.37.32.6.43.23.11.49.16.77.16Z" fill="#111317"/>
    <path d="M180.88,392.93c-.36,0-.69-.05-.98-.16-.29-.1-.54-.26-.75-.47s-.37-.46-.48-.77c-.11-.31-.17-.66-.17-1.07v-3.22h.98v3.18c0,.52.13.92.38,1.19.25.27.6.41,1.05.41s.79-.13,1.04-.39.38-.65.38-1.17v-3.22h.98v3.18c0,.42-.06.78-.17,1.1s-.28.58-.48.79-.46.37-.76.47c-.3.1-.63.16-1,.16Z" fill="#111317"/>
    <path d="M185.68,387.24h4.14v.89h-3.17v1.44h2.81v.89h-2.81v1.5h3.21v.89h-4.18v-5.6Z" fill="#111317"/>
    <path d="M198.13,392.94c-.41,0-.79-.07-1.14-.22s-.65-.35-.9-.61-.45-.56-.6-.92c-.15-.35-.22-.73-.22-1.13v-.02c0-.4.07-.77.21-1.12s.34-.66.6-.92c.26-.26.56-.47.91-.62.35-.15.74-.23,1.17-.23.26,0,.49.02.7.06.21.04.4.1.58.18.18.08.34.17.49.28.15.11.29.22.42.35l-.63.73c-.22-.21-.46-.38-.71-.5-.25-.13-.54-.19-.86-.19-.27,0-.51.05-.74.16-.23.1-.42.25-.59.42-.17.18-.29.39-.38.63s-.14.5-.14.77v.02c0,.27.04.53.14.77.09.24.22.46.38.64.17.18.36.32.59.43.23.1.47.16.74.16.34,0,.63-.07.88-.2.25-.13.49-.31.73-.53l.63.64c-.14.16-.29.29-.45.41-.16.12-.33.22-.51.31-.18.09-.38.15-.6.2-.22.04-.45.07-.72.07Z" fill="#111317"/>
    <path d="M205.13,392.94c-.43,0-.83-.08-1.18-.23-.36-.15-.66-.36-.92-.62s-.46-.57-.6-.92-.22-.72-.22-1.12v-.02c0-.39.07-.77.22-1.12s.35-.66.61-.92.57-.47.93-.63c.36-.15.75-.23,1.18-.23s.83.08,1.18.23c.36.15.66.36.92.62.26.26.46.57.6.92.14.35.22.72.22,1.12v.02c0,.39-.07.77-.22,1.12-.14.35-.35.66-.61.92-.26.26-.57.47-.93.63-.36.15-.75.23-1.18.23ZM205.15,392.04c.28,0,.53-.05.76-.16.23-.1.43-.25.59-.42s.29-.39.39-.63c.09-.24.14-.5.14-.77v-.02c0-.27-.05-.53-.14-.77-.09-.24-.22-.45-.39-.63-.17-.18-.37-.32-.6-.43-.23-.11-.49-.16-.76-.16s-.53.05-.76.16c-.23.1-.43.25-.59.42s-.29.39-.39.63-.14.5-.14.77v.02c0,.27.05.53.14.77.09.24.22.45.39.63.17.18.37.32.6.43.23.11.49.16.77.16Z" fill="#111317"/>
    <path d="M210.3,387.24h.91l2.99,3.87v-3.87h.98v5.6h-.82l-3.08-3.98v3.98h-.98v-5.6Z" fill="#111317"/>
    <path d="M217.66,387.24h4.14v.89h-3.17v1.44h2.81v.89h-2.81v1.5h3.21v.89h-4.18v-5.6Z" fill="#111317"/>
    <path d="M226.67,392.94c-.41,0-.79-.07-1.14-.22s-.65-.35-.9-.61-.45-.56-.6-.92c-.15-.35-.22-.73-.22-1.13v-.02c0-.4.07-.77.21-1.12s.34-.66.6-.92c.26-.26.56-.47.91-.62.35-.15.74-.23,1.17-.23.26,0,.49.02.7.06.21.04.4.1.58.18.18.08.34.17.49.28.15.11.29.22.42.35l-.63.73c-.22-.21-.46-.38-.71-.5-.25-.13-.54-.19-.86-.19-.27,0-.51.05-.74.16-.23.1-.42.25-.59.42-.17.18-.29.39-.38.63s-.14.5-.14.77v.02c0,.27.04.53.14.77.09.24.22.46.38.64.17.18.36.32.59.43.23.1.47.16.74.16.34,0,.63-.07.88-.2.25-.13.49-.31.73-.53l.63.64c-.14.16-.29.29-.45.41-.16.12-.33.22-.51.31-.18.09-.38.15-.6.2-.22.04-.45.07-.72.07Z" fill="#111317"/>
    <path d="M232.38,388.16h-1.78v-.91h4.54v.91h-1.78v4.69h-.99v-4.69Z" fill="#111317"/>
    <path d="M239.21,387.2h.91l2.46,5.64h-1.04l-.57-1.35h-2.65l-.58,1.35h-1.01l2.46-5.64ZM240.62,390.62l-.97-2.24-.96,2.24h1.93Z" fill="#111317"/>
    <path d="M244.14,393.6c.49-.1.72-.35.68-.75h-.41v-1.1h1.06v.93c0,.45-.1.77-.31.98-.21.2-.51.32-.92.35l-.1-.41Z" fill="#111317"/>
    <path d="M251.28,387.24h.98v5.6h-.98v-5.6Z" fill="#111317"/>
    <path d="M254.8,387.24h.91l2.99,3.87v-3.87h.98v5.6h-.82l-3.08-3.98v3.98h-.98v-5.6Z" fill="#111317"/>
    <path d="M262.16,387.24h4.16v.89h-3.18v1.54h2.82v.89h-2.82v2.28h-.98v-5.6Z" fill="#111317"/>
    <path d="M271.12,392.94c-.43,0-.83-.08-1.18-.23-.36-.15-.66-.36-.92-.62s-.46-.57-.6-.92c-.14-.35-.22-.72-.22-1.12v-.02c0-.39.07-.77.22-1.12.14-.35.35-.66.61-.92.26-.26.57-.47.93-.63.36-.15.75-.23,1.18-.23s.83.08,1.18.23c.36.15.66.36.92.62.26.26.46.57.6.92.14.35.22.72.22,1.12v.02c0,.39-.07.77-.22,1.12-.14.35-.35.66-.61.92-.26.26-.57.47-.93.63-.36.15-.75.23-1.18.23ZM271.13,392.04c.28,0,.53-.05.76-.16.23-.1.43-.25.59-.42.16-.18.29-.39.39-.63.09-.24.14-.5.14-.77v-.02c0-.27-.05-.53-.14-.77-.09-.24-.22-.45-.39-.63-.17-.18-.37-.32-.6-.43-.23-.11-.49-.16-.76-.16s-.53.05-.76.16c-.23.1-.43.25-.59.42-.17.18-.29.39-.39.63s-.14.5-.14.77v.02c0,.27.05.53.14.77.09.24.22.45.39.63.17.18.37.32.6.43s.49.16.76.16Z" fill="#111317"/>
    <path d="M276.29,387.24h2.5c.35,0,.66.05.94.15.27.1.5.24.68.41.15.16.26.33.34.54.08.2.12.43.12.67v.02c0,.23-.03.44-.1.62-.07.18-.16.35-.28.49s-.26.26-.42.36c-.16.1-.34.17-.54.23l1.51,2.12h-1.16l-1.38-1.95h-1.24v1.95h-.98v-5.6ZM278.71,390.02c.35,0,.63-.08.84-.25.21-.17.31-.4.31-.69v-.02c0-.3-.1-.54-.3-.69-.2-.16-.49-.24-.86-.24h-1.44v1.89h1.44Z" fill="#111317"/>
    <path d="M283.11,387.24h1.05l1.7,2.65,1.7-2.65h1.05v5.6h-.98v-4.02l-1.77,2.64h-.03l-1.75-2.62v4h-.98v-5.6Z" fill="#111317"/>
    <path d="M293.08,387.2h.91l2.46,5.64h-1.04l-.57-1.35h-2.65l-.58,1.35h-1.01l2.46-5.64ZM294.48,390.62l-.97-2.24-.96,2.24h1.93Z" fill="#111317"/>
    <path d="M299.87,393.81l.63-.93c-.34-.06-.64-.18-.92-.35s-.52-.38-.73-.62-.36-.53-.48-.85c-.11-.32-.17-.65-.17-1v-.02c0-.4.07-.77.21-1.12s.34-.66.6-.92c.26-.26.56-.47.91-.62.35-.15.74-.23,1.17-.23.26,0,.49.02.7.06s.4.1.58.18.34.17.49.28c.15.11.29.22.42.35l-.63.73c-.22-.21-.46-.38-.71-.5-.25-.13-.54-.19-.86-.19-.27,0-.51.05-.74.16s-.42.25-.59.42-.29.39-.38.63c-.09.24-.14.5-.14.77v.02c0,.27.04.53.14.77s.22.46.38.64.36.32.59.43.47.16.74.16c.34,0,.63-.07.88-.2s.49-.31.73-.53l.63.64c-.14.14-.28.27-.42.38-.14.11-.3.21-.47.3-.17.08-.35.15-.55.2-.2.05-.42.08-.66.09l-.53,1.23-.84-.35Z" fill="#111317"/>
    <path d="M308.07,392.94c-.43,0-.83-.08-1.18-.23-.36-.15-.66-.36-.92-.62s-.46-.57-.6-.92c-.14-.35-.22-.72-.22-1.12v-.02c0-.39.07-.77.22-1.12.14-.35.35-.66.61-.92.26-.26.57-.47.93-.63s.75-.23,1.18-.23.83.08,1.18.23c.36.15.66.36.92.62.26.26.46.57.6.92.14.35.22.72.22,1.12v.02c0,.39-.07.77-.22,1.12-.14.35-.35.66-.61.92-.26.26-.57.47-.93.63-.36.15-.75.23-1.18.23ZM308.09,392.04c.28,0,.53-.05.76-.16.23-.1.43-.25.59-.42.17-.18.29-.39.39-.63.09-.24.14-.5.14-.77v-.02c0-.27-.05-.53-.14-.77-.09-.24-.22-.45-.39-.63s-.37-.32-.6-.43-.49-.16-.76-.16-.53.05-.76.16c-.23.1-.43.25-.59.42-.16.18-.29.39-.39.63s-.14.5-.14.77v.02c0,.27.05.53.14.77.09.24.22.45.39.63.17.18.37.32.6.43.23.11.49.16.77.16ZM306.56,386.7c.09-.33.2-.57.33-.74s.32-.26.56-.26c.11,0,.22.02.33.05.11.03.21.07.31.11.1.04.19.08.28.11.09.03.17.05.24.05.12,0,.21-.03.26-.1.06-.06.12-.17.18-.3l.54.17c-.09.32-.2.57-.33.74-.13.17-.32.26-.56.26-.11,0-.22-.02-.33-.05-.11-.03-.21-.07-.31-.11s-.19-.08-.28-.11c-.09-.03-.17-.05-.24-.05-.12,0-.21.03-.26.1-.06.06-.12.17-.18.3l-.54-.16Z" fill="#111317"/>
    <path d="M313.24,387.24h4.14v.89h-3.17v1.44h2.81v.89h-2.81v1.5h3.21v.89h-4.18v-5.6Z" fill="#111317"/>
    <path d="M321.6,392.92c-.43,0-.84-.07-1.24-.22-.4-.15-.76-.37-1.1-.68l.59-.7c.27.23.55.41.82.54.28.13.59.19.94.19.3,0,.54-.06.72-.19s.27-.3.27-.51v-.02c0-.1-.02-.19-.05-.27-.03-.08-.1-.15-.19-.22s-.22-.13-.38-.19c-.16-.06-.38-.12-.64-.18-.3-.07-.57-.15-.8-.24-.23-.09-.43-.2-.59-.32-.16-.12-.28-.28-.36-.46-.08-.18-.12-.4-.12-.66v-.02c0-.24.05-.46.14-.66.09-.2.23-.37.39-.51.17-.14.37-.25.6-.33.23-.08.49-.12.77-.12.41,0,.78.06,1.11.18s.64.29.92.52l-.53.74c-.26-.19-.51-.33-.76-.43s-.5-.15-.76-.15c-.29,0-.51.06-.67.19-.16.13-.24.29-.24.47v.02c0,.11.02.2.06.28.04.08.11.16.21.22.1.07.24.13.41.19.17.06.39.12.66.18.29.08.55.16.78.25s.42.2.57.33.26.28.34.46.12.38.12.6v.02c0,.26-.05.5-.15.7-.1.21-.23.38-.41.53-.17.14-.38.25-.63.33-.25.08-.51.11-.81.11Z" fill="#111317"/>
    <path d="M333.61,392.41c-.24.17-.5.3-.78.39-.28.09-.59.14-.92.14-.43,0-.83-.08-1.18-.23-.36-.15-.66-.36-.92-.62s-.46-.57-.6-.92c-.14-.35-.22-.72-.22-1.12v-.02c0-.39.07-.77.22-1.12.14-.35.35-.66.61-.92.26-.26.57-.47.93-.63s.75-.23,1.18-.23.83.08,1.18.23c.36.15.66.36.92.62.26.26.46.57.6.92.14.35.22.72.22,1.12v.02c0,.32-.05.62-.14.92s-.24.56-.42.8l.64.54-.63.7-.67-.6ZM331.93,392.04c.19,0,.36-.02.52-.07.16-.05.31-.11.44-.2l-.96-.82.63-.72.96.88c.19-.29.29-.64.29-1.05v-.02c0-.27-.05-.53-.14-.77-.09-.24-.22-.45-.39-.63s-.37-.32-.6-.43-.49-.16-.76-.16-.53.05-.76.16c-.23.1-.43.25-.59.42-.16.18-.29.39-.39.63s-.14.5-.14.77v.02c0,.27.05.53.14.77.09.24.22.45.39.63.17.18.37.32.6.43s.49.16.77.16Z" fill="#111317"/>
    <path d="M339.37,392.93c-.36,0-.69-.05-.98-.16-.29-.1-.54-.26-.75-.47s-.37-.46-.48-.77-.17-.66-.17-1.07v-3.22h.98v3.18c0,.52.13.92.38,1.19.25.27.6.41,1.05.41s.79-.13,1.04-.39.38-.65.38-1.17v-3.22h.98v3.18c0,.42-.06.78-.17,1.1-.12.31-.28.58-.48.79s-.46.37-.76.47c-.3.1-.63.16-1,.16Z" fill="#111317"/>
    <path d="M344.17,387.24h4.14v.89h-3.17v1.44h2.81v.89h-2.81v1.5h3.21v.89h-4.18v-5.6Z" fill="#111317"/>
    <path d="M355.39,388.16h-1.78v-.91h4.54v.91h-1.78v4.69h-.99v-4.69Z" fill="#111317"/>
    <path d="M360.24,387.24h2.5c.35,0,.66.05.94.15.27.1.5.24.68.41.15.16.26.33.34.54s.12.43.12.67v.02c0,.23-.03.44-.1.62-.07.18-.16.35-.28.49s-.26.26-.42.36c-.16.1-.34.17-.54.23l1.51,2.12h-1.16l-1.38-1.95h-1.24v1.95h-.98v-5.6ZM362.66,390.02c.35,0,.63-.08.84-.25.21-.17.31-.4.31-.69v-.02c0-.3-.1-.54-.3-.69-.2-.16-.49-.24-.86-.24h-1.44v1.89h1.45Z" fill="#111317"/>
    <path d="M369.04,387.2h.91l2.46,5.64h-1.04l-.57-1.35h-2.65l-.58,1.35h-1.01l2.46-5.64ZM370.45,390.62l-.97-2.24-.96,2.24h1.93Z" fill="#111317"/>
    <path d="M374.42,387.24h.91l2.99,3.87v-3.87h.98v5.6h-.82l-3.08-3.98v3.98h-.98v-5.6Z" fill="#111317"/>
    <path d="M383.75,392.92c-.43,0-.85-.07-1.24-.22-.39-.15-.76-.37-1.1-.68l.59-.7c.27.23.55.41.82.54.28.13.59.19.94.19.3,0,.55-.06.72-.19s.27-.3.27-.51v-.02c0-.1-.02-.19-.05-.27-.04-.08-.1-.15-.19-.22-.09-.07-.22-.13-.39-.19-.16-.06-.38-.12-.64-.18-.3-.07-.57-.15-.8-.24-.23-.09-.43-.2-.58-.32-.16-.12-.28-.28-.36-.46s-.12-.4-.12-.66v-.02c0-.24.05-.46.14-.66.1-.2.23-.37.39-.51.17-.14.37-.25.6-.33.23-.08.49-.12.77-.12.41,0,.78.06,1.11.18s.64.29.92.52l-.53.74c-.26-.19-.51-.33-.76-.43-.25-.1-.5-.15-.76-.15-.29,0-.51.06-.67.19s-.24.29-.24.47v.02c0,.11.02.2.06.28.04.08.11.16.2.22s.24.13.41.19.39.12.66.18c.29.08.55.16.78.25.23.09.42.2.57.33.15.13.26.28.34.46.08.17.12.38.12.6v.02c0,.26-.05.5-.15.7s-.23.38-.41.53c-.17.14-.38.25-.63.33-.25.08-.51.11-.81.11Z" fill="#111317"/>
    <path d="M387.94,387.24h4.16v.89h-3.18v1.54h2.82v.89h-2.82v2.28h-.98v-5.6Z" fill="#111317"/>
    <path d="M396.9,392.94c-.43,0-.83-.08-1.18-.23-.36-.15-.66-.36-.92-.62s-.46-.57-.6-.92c-.14-.35-.22-.72-.22-1.12v-.02c0-.39.07-.77.22-1.12.14-.35.35-.66.61-.92.26-.26.57-.47.93-.63.36-.15.75-.23,1.18-.23s.83.08,1.18.23c.36.15.66.36.92.62.26.26.46.57.6.92.14.35.22.72.22,1.12v.02c0,.39-.07.77-.22,1.12-.14.35-.35.66-.61.92-.26.26-.57.47-.93.63-.36.15-.75.23-1.18.23ZM396.92,392.04c.28,0,.53-.05.76-.16.23-.1.43-.25.59-.42.16-.18.29-.39.39-.63.09-.24.14-.5.14-.77v-.02c0-.27-.05-.53-.14-.77-.09-.24-.22-.45-.39-.63-.17-.18-.37-.32-.6-.43-.23-.11-.49-.16-.76-.16s-.53.05-.76.16c-.23.1-.43.25-.59.42-.17.18-.29.39-.39.63s-.14.5-.14.77v.02c0,.27.05.53.14.77.09.24.22.45.39.63.17.18.37.32.6.43s.49.16.76.16Z" fill="#111317"/>
    <path d="M402.07,387.24h2.5c.35,0,.66.05.94.15.27.1.5.24.68.41.15.16.26.33.34.54s.12.43.12.67v.02c0,.23-.03.44-.1.62-.07.18-.16.35-.28.49s-.26.26-.42.36c-.16.1-.34.17-.54.23l1.51,2.12h-1.16l-1.38-1.95h-1.24v1.95h-.98v-5.6ZM404.49,390.02c.35,0,.63-.08.84-.25s.31-.4.31-.69v-.02c0-.3-.1-.54-.3-.69-.2-.16-.49-.24-.86-.24h-1.44v1.89h1.45Z" fill="#111317"/>
    <path d="M408.89,387.24h1.05l1.7,2.65,1.7-2.65h1.05v5.6h-.98v-4.02l-1.77,2.64h-.03l-1.75-2.62v4h-.98v-5.6Z" fill="#111317"/>
    <path d="M418.86,387.2h.91l2.46,5.64h-1.04l-.57-1.35h-2.65l-.58,1.35h-1.01l2.46-5.64ZM420.27,390.62l-.97-2.24-.96,2.24h1.93Z" fill="#111317"/>
    <path d="M424.06,391.75h1.06v1.1h-1.06v-1.1Z" fill="#111317"/>
  </g>
</svg>