<?xml version="1.0" encoding="UTF-8"?>
<svg id="Camada_1" xmlns="http://www.w3.org/2000/svg" baseProfile="tiny" version="1.2" viewBox="0 0 512 512">
  <!-- Generator: Adobe Illustrator 29.8.3, SVG Export Plug-In . SVG Version: 2.1.1 Build 3)  -->
  <path id="Alpha" d="M342.87,246.78c-4.7-8.61-22.59-43.43-22.59-43.43,19.99-41.44,46.46-97.83,46.46-97.83l-35.61-.78s-5.48,10.56-26.61,61.83c-21.52-43.83-30.91-64.69-70.43-64.57-41.14.12-77.48,43.04-78.66,101.35-1.17,58.3,39.92,86.08,78.66,85.69,38.74-.39,55.95-27.39,65.74-44.61,1.06-1.86,2.66-4.93,4.69-8.94,14.48,30.17,14.48,32.42,26.61,42.99,12.13,10.56,38.74,9,38.74,9v-26.61c-14.09-1.17-22.3-5.48-27-14.09ZM234.09,258.13c-7.05-.26-42.26-5.22-43.57-54.78-1.3-49.57,28.18-68.61,43.57-68.87,15.39-.26,22.17,7.04,27.13,15.13,4.95,8.09,25.3,53.74,25.3,53.74-24,55.82-45.39,55.04-52.43,54.78Z" fill="#E6E6EA"/>
</svg>